<svg width="1024" height="1024" viewBox="0 0 1024 1024" fill="none" xmlns="http://www.w3.org/2000/svg">
<path d="M0 61.44C0 27.5076 27.5076 0 61.44 0H962.56C996.492 0 1024 27.5076 1024 61.44V962.56C1024 996.492 996.492 1024 962.56 1024H61.44C27.5076 1024 0 996.492 0 962.56V61.44Z" fill="#00313D"/>
<path d="M408.553 855.262C413.409 855.262 418.804 855.262 424.199 854.183C395.605 847.169 385.894 820.734 403.698 789.982C421.501 759.231 460.885 733.874 496.492 729.019C492.176 727.94 487.86 727.4 482.465 727.4C443.081 726.321 394.526 754.375 374.025 789.443C353.524 825.05 368.63 854.183 408.014 855.262H408.553Z" fill="white"/>
<path d="M532.638 920.003C535.336 915.686 537.494 911.37 539.652 906.515C518.611 927.555 491.097 921.621 473.833 890.87C456.569 859.578 454.95 813.181 468.977 780.272C465.74 783.509 463.043 786.746 460.345 791.062C439.305 823.971 438.226 879.54 458.187 915.686C478.149 951.293 511.598 953.452 532.638 920.542V920.003Z" fill="white"/>
<path d="M651.869 843.394C649.711 839.078 646.474 834.762 643.237 830.446C651.869 858.5 633.526 880.08 597.379 880.08C561.233 880.08 520.231 859.039 497.572 830.446C498.651 834.762 500.809 839.078 502.967 843.394C521.849 877.922 570.404 905.436 611.406 905.436C652.408 905.436 670.751 877.382 651.869 843.394Z" fill="white"/>
<path d="M225.663 574.182V613.566H236.453V560.695C236.453 557.458 233.756 554.76 230.519 554.76C227.282 554.76 227.282 555.839 226.203 556.918L192.754 597.381V560.695C192.754 557.458 190.056 554.76 186.819 554.76C183.582 554.76 183.582 555.3 182.503 556.379L121 614.105H137.185L181.964 572.564V607.631C181.964 611.408 185.201 614.645 189.517 614.645C193.833 614.645 193.833 613.566 195.451 611.408L226.203 573.643L225.663 574.182Z" fill="white"/>
<path d="M259.113 555.839H248.323V613.566H259.113V555.839Z" fill="white"/>
<path d="M306.588 614.106V603.855H281.232V556.379H270.442V614.106H307.128H306.588Z" fill="white"/>
<path d="M345.432 557.998C344.353 556.379 343.274 555.3 341.116 555.3C338.958 555.3 337.34 556.379 336.8 557.998L310.904 614.106H322.773L328.708 600.618H353.525L359.459 614.106H371.868L345.432 557.998ZM333.024 590.368L341.116 573.104L348.669 590.368H333.024Z" fill="white"/>
<path d="M386.434 614.106H375.644V561.235C375.644 557.998 378.342 555.3 381.579 555.3C384.816 555.3 384.816 555.84 386.434 557.458L417.186 594.684V555.84H427.976V608.711C427.976 611.948 425.278 614.645 422.041 614.645C418.804 614.645 418.804 614.106 417.186 611.948L386.434 574.722V614.106Z" fill="white"/>
<path d="M466.82 555.3C450.095 555.3 436.608 568.788 436.608 584.973C436.608 601.158 450.095 614.645 466.82 614.645C483.544 614.645 497.032 601.158 497.032 584.973C497.032 568.788 483.544 555.3 466.82 555.3ZM466.82 604.935C456.03 604.935 447.937 595.763 447.937 584.973C447.937 574.183 456.03 565.011 466.82 565.011C477.61 565.011 485.702 574.183 485.702 584.973C485.702 595.763 477.61 604.935 466.82 604.935Z" fill="white"/>
<path d="M530.481 584.973C530.481 595.763 538.574 604.935 549.903 604.935C561.233 604.935 561.233 601.158 563.391 596.302H575.799C573.641 606.013 563.391 614.645 549.903 614.645C536.416 614.645 519.152 601.158 519.152 584.973C519.152 568.788 532.1 555.3 549.903 555.3C567.707 555.3 573.641 563.393 575.799 574.183H563.391C561.772 569.327 556.917 565.011 549.903 565.011C538.574 565.011 530.481 574.183 530.481 584.973Z" fill="white"/>
<path d="M610.328 555.3C593.603 555.3 580.116 568.788 580.116 584.973C580.116 601.158 593.603 614.645 610.328 614.645C627.052 614.645 640.54 601.158 640.54 584.973C640.54 568.788 627.052 555.3 610.328 555.3ZM610.328 604.935C599.538 604.935 591.445 595.763 591.445 584.973C591.445 574.183 599.538 565.011 610.328 565.011C621.118 565.011 629.21 574.183 629.21 584.973C629.21 595.763 621.118 604.935 610.328 604.935Z" fill="white"/>
<path d="M675.067 588.209C683.16 586.591 688.015 580.117 688.015 572.024C688.015 563.932 681.002 555.839 670.751 555.839H648.632V613.566H659.422V588.749H662.119L681.002 613.566H694.489L675.067 588.209ZM659.422 565.55H668.054C673.449 565.55 676.686 567.708 676.686 572.564C676.686 577.419 673.449 579.577 668.054 579.577H659.422V565.55Z" fill="white"/>
<path d="M720.925 614.106V566.63H737.11V556.379H693.411V566.63H709.596V614.106H720.925Z" fill="white"/>
<path d="M756.532 555.839H745.742V613.566H756.532V555.839Z" fill="white"/>
<path d="M778.651 614.106H767.861V561.235C767.861 557.998 770.558 555.3 773.795 555.3C777.032 555.3 777.032 555.84 778.651 557.458L809.402 594.684V555.84H820.192V608.711C820.192 611.948 817.495 614.645 814.258 614.645C811.021 614.645 811.021 614.106 809.402 611.948L778.651 574.722V614.106Z" fill="white"/>
<path d="M841.773 556.919C840.694 555.84 839.075 555.3 837.457 555.3C834.22 555.3 831.522 557.998 831.522 561.235V614.106H842.312V600.618H872.524L887.091 614.106H903.276L841.773 556.919ZM842.312 590.368V572.025L861.734 590.368H842.312Z" fill="white"/>
<path d="M516.454 684.78C516.454 683.161 517.533 681.543 519.152 679.924L539.653 657.805C542.89 654.568 545.048 651.331 545.048 647.554C545.048 643.778 541.811 641.08 536.955 641.08C532.1 641.08 528.323 644.857 528.323 649.712H517.533C517.533 641.08 524.547 631.369 536.955 631.369C549.364 631.369 556.377 638.383 556.377 647.015C556.377 655.647 552.601 657.805 547.745 663.2L532.1 679.924H556.917V690.175H522.389C519.152 690.175 516.994 688.017 516.994 684.78" fill="white"/>
<path d="M490.558 631.369C477.07 631.369 470.057 644.317 470.057 661.042C470.057 677.766 476.531 690.714 490.558 690.714C504.585 690.714 511.059 677.766 511.059 661.042C511.059 644.317 504.585 631.369 490.558 631.369ZM490.558 681.543C485.163 681.543 481.386 674.529 481.386 661.581C481.386 648.633 484.623 641.62 490.558 641.62C496.492 641.62 499.729 648.633 499.729 661.581C499.729 674.529 496.492 681.543 490.558 681.543Z" fill="white"/>
<path d="M425.278 684.78C425.278 683.161 426.357 681.543 427.975 679.924L448.476 657.805C451.713 654.568 453.871 651.331 453.871 647.554C453.871 643.778 450.634 641.08 445.779 641.08C440.923 641.08 437.147 644.857 437.147 649.712H426.357C426.357 641.08 433.37 631.369 445.779 631.369C458.187 631.369 465.201 638.383 465.201 647.015C465.201 655.647 461.424 657.805 456.569 663.2L440.923 679.924H465.74V690.175H431.212C427.975 690.175 425.817 688.017 425.817 684.78" fill="white"/>
<path d="M579.036 651.87L590.905 632.448H579.575L562.311 660.502C560.693 663.739 559.074 667.515 559.074 671.292C559.074 682.082 568.246 691.253 579.036 691.253C589.826 691.253 598.997 682.621 598.997 671.292C598.997 659.962 589.826 651.33 579.036 651.33V651.87ZM579.575 681.542C574.18 681.542 570.943 677.226 570.943 671.831C570.943 666.436 574.18 662.12 579.575 662.12C584.97 662.12 588.207 666.436 588.207 671.831C588.207 677.226 584.97 681.542 579.575 681.542Z" fill="white"/>
<path d="M311.444 519.153C305.509 519.153 299.575 517.535 294.719 514.837C286.627 510.521 281.232 502.968 278.534 494.336C275.837 485.704 277.455 476.533 281.771 468.44L420.962 225.126L354.064 241.85C351.367 242.39 348.669 242.929 345.432 242.929C329.787 242.929 315.76 232.139 311.983 217.033C309.825 208.401 310.904 199.23 315.76 191.137C320.615 183.045 328.168 177.65 336.8 175.492L481.387 139.345C484.084 138.806 486.782 138.266 490.019 138.266C495.953 138.266 501.888 139.884 506.743 142.582C523.468 151.754 528.863 172.794 519.691 188.979L402.08 395.068L481.926 350.29L621.657 97.8035C627.591 87.0134 639.46 79.9999 651.869 79.9999C664.277 79.9999 663.198 81.6184 668.593 84.3159C676.686 88.6319 682.62 96.185 685.318 104.817C688.015 113.449 686.936 122.62 682.62 130.713L596.3 288.247L696.647 232.679C702.042 229.442 707.437 227.823 713.372 227.823C719.306 227.823 722.004 228.363 725.78 229.981C734.412 233.218 740.886 239.692 744.663 248.324C748.439 256.956 748.439 266.128 744.663 274.22L655.645 497.034C654.027 501.35 651.329 505.126 648.092 508.903C641.618 515.377 632.986 519.153 623.275 519.153C613.564 519.153 606.011 515.916 599.537 509.442L504.046 417.188L328.708 514.837C323.313 518.074 317.378 519.693 311.444 519.693M566.628 382.12L610.867 424.741L645.395 338.421L567.167 382.12H566.628Z" fill="white"/>
</svg>
