<svg width="499" height="499" viewBox="0 0 499 499" fill="none" xmlns="http://www.w3.org/2000/svg">
<rect width="499" height="499" rx="30" fill="#00313D"/>
<path d="M207.196 390.101C207.196 370.132 190.905 354.103 170.935 354.103C150.965 354.103 134.674 370.132 134.674 390.101C134.674 410.071 150.965 426.099 170.935 426.099C190.905 426.099 173.037 426.099 174.088 426.099C174.088 425.048 174.088 424.26 174.088 423.209C174.088 422.158 174.088 421.107 174.088 420.056C173.037 420.056 171.986 420.056 170.935 420.056C154.119 420.056 140.718 406.655 140.718 390.101C140.718 373.547 154.381 360.147 170.935 360.147C187.489 360.147 201.152 373.547 201.152 390.101C201.152 406.655 192.481 414.801 180.394 418.742C180.394 420.319 180.132 421.632 180.132 423.209C180.132 424.785 180.132 424.523 180.132 425.048C195.897 421.107 207.196 406.918 207.196 390.101Z" fill="white"/>
<path d="M364.588 390.101C364.588 410.071 348.297 426.099 328.328 426.099C308.358 426.099 293.643 411.647 292.067 393.254C294.169 393.254 296.271 394.043 298.373 394.568C300.475 409.02 313.088 420.056 328.328 420.056C343.568 420.056 358.545 406.655 358.545 390.101C358.545 373.547 344.881 360.147 328.328 360.147C311.774 360.147 299.161 372.496 298.11 388.262C296.271 387.736 294.169 387.474 292.067 387.211C293.643 368.555 309.146 354.103 328.328 354.103C347.509 354.103 364.588 370.132 364.588 390.101Z" fill="white"/>
<path d="M288.914 392.992C304.154 392.992 316.766 404.027 318.868 418.479C320.97 419.005 323.072 419.53 325.174 419.793C323.598 401.4 308.095 386.948 288.914 386.948C269.732 386.948 286.812 386.948 285.761 386.948C285.761 387.999 285.761 388.787 285.761 389.839C285.761 390.89 285.761 391.941 285.761 392.992C286.812 392.992 287.863 392.992 288.914 392.992ZM319.131 425.048C318.08 440.814 304.942 453.163 288.914 453.163C272.885 453.163 258.696 439.763 258.696 423.209C258.696 406.655 267.368 398.509 279.454 394.568C279.454 392.992 279.717 391.678 279.717 390.101C279.717 388.525 279.717 388.787 279.717 388.262C263.952 392.203 252.39 406.392 252.39 423.209C252.39 440.025 268.681 459.207 288.651 459.207C308.621 459.207 323.335 444.492 324.912 426.099C322.81 426.099 320.97 425.574 318.868 425.048" fill="white"/>
<path d="M206.933 393.255C206.933 392.204 206.933 391.153 206.933 390.102C206.933 389.05 206.933 388.262 206.933 387.211C207.984 387.211 209.035 387.211 210.086 387.211C229.005 387.211 244.77 401.663 246.347 420.056C244.245 420.056 242.143 419.268 240.041 418.742C237.939 404.29 225.326 393.255 210.086 393.255C194.846 393.255 207.984 393.255 206.933 393.255ZM246.347 426.099C244.77 444.755 229.268 459.207 210.086 459.207C190.905 459.207 173.826 443.179 173.826 423.209C173.826 403.239 185.387 392.204 200.89 388.262C200.89 388.788 200.89 389.576 200.89 390.102C200.89 391.678 200.89 393.255 200.627 394.568C188.54 398.51 179.869 409.808 179.869 423.209C179.869 436.61 193.532 453.164 210.086 453.164C226.64 453.164 239.252 440.814 240.303 425.048C242.143 425.574 244.245 425.837 246.347 426.099Z" fill="white"/>
<path d="M249.5 354.103C230.319 354.103 214.816 368.818 213.239 387.211C215.341 387.211 217.181 387.736 219.283 388.262C220.334 372.496 233.472 360.147 249.5 360.147C265.528 360.147 279.717 373.547 279.717 390.101C279.717 406.655 271.046 414.801 258.959 418.742C258.959 420.319 258.696 421.632 258.696 423.209C258.696 424.785 258.697 424.523 258.697 425.048C274.462 421.107 285.761 406.918 285.761 390.101C285.761 373.285 269.47 354.103 249.5 354.103ZM249.5 420.056C234.26 420.056 221.648 409.02 219.546 394.568C217.443 394.043 215.341 393.517 213.239 393.254C214.816 411.647 230.319 426.099 249.5 426.099C268.681 426.099 251.602 426.099 252.653 426.099C252.653 425.048 252.653 424.26 252.653 423.209C252.653 422.158 252.653 421.107 252.653 420.056C251.602 420.056 250.551 420.056 249.5 420.056Z" fill="white"/>
<path d="M109.975 279.48V298.661H115.23V272.911C115.23 271.334 113.917 270.021 112.34 270.021C110.763 270.021 110.763 270.546 110.238 271.072L93.9469 290.778V272.911C93.9469 271.334 92.6331 270.021 91.0565 270.021C89.48 270.021 89.48 270.283 88.9545 270.809L59 298.924H66.8828L88.6917 278.692V295.771C88.6917 297.61 90.2683 299.187 92.3703 299.187C94.4724 299.187 94.4724 298.661 95.2607 297.61L110.238 279.217L109.975 279.48Z" fill="white"/>
<path d="M126.266 270.546H121.011V298.661H126.266V270.546Z" fill="white"/>
<path d="M149.389 298.924V293.932H137.039V270.809H131.784V298.924H149.652H149.389Z" fill="white"/>
<path d="M168.308 271.597C167.782 270.809 167.257 270.284 166.206 270.284C165.155 270.284 164.366 270.809 164.103 271.597L151.491 298.924H157.272L160.162 292.355H172.249L175.139 298.924H181.183L168.308 271.597ZM162.264 287.363L166.206 278.955L169.884 287.363H162.264Z" fill="white"/>
<path d="M188.277 280.006V298.924H183.022V273.174C183.022 271.597 184.336 270.284 185.912 270.284C187.489 270.284 187.489 270.546 188.277 271.597L203.255 289.728V270.809H208.51V296.559C208.51 298.136 207.196 299.45 205.619 299.45C204.043 299.45 204.043 299.187 203.255 298.399L188.277 280.268V280.006Z" fill="white"/>
<path d="M227.428 270.284C219.283 270.284 212.714 276.853 212.714 284.735C212.714 292.618 219.283 299.187 227.428 299.187C235.574 299.187 242.143 292.618 242.143 284.735C242.143 276.853 235.574 270.284 227.428 270.284ZM227.428 294.457C222.173 294.457 218.232 289.99 218.232 284.735C218.232 279.48 222.173 275.013 227.428 275.013C232.683 275.013 236.625 279.48 236.625 284.735C236.625 289.99 232.683 294.457 227.428 294.457Z" fill="white"/>
<path d="M258.434 284.735C258.434 289.99 262.375 294.457 267.893 294.457C273.411 294.457 273.411 292.618 274.462 290.253H280.505C279.454 294.983 274.462 299.187 267.893 299.187C261.324 299.187 252.916 292.618 252.916 284.735C252.916 276.853 259.222 270.284 267.893 270.284C276.564 270.284 279.454 274.225 280.505 279.48H274.462C273.674 277.115 271.309 275.013 267.893 275.013C262.375 275.013 258.434 279.48 258.434 284.735Z" fill="white"/>
<path d="M297.322 270.284C289.176 270.284 282.608 276.853 282.608 284.735C282.608 292.618 289.176 299.187 297.322 299.187C305.468 299.187 312.036 292.618 312.036 284.735C312.036 276.853 305.468 270.284 297.322 270.284ZM297.322 294.457C292.067 294.457 288.125 289.99 288.125 284.735C288.125 279.48 292.067 275.013 297.322 275.013C302.577 275.013 306.519 279.48 306.519 284.735C306.519 289.99 302.577 294.457 297.322 294.457Z" fill="white"/>
<path d="M328.853 286.311C332.794 285.523 335.159 282.37 335.159 278.429C335.159 274.487 331.743 270.546 326.751 270.546H315.978V298.661H321.233V286.574H322.547L331.743 298.661H338.312L328.853 286.311ZM321.233 275.276H325.437C328.065 275.276 329.641 276.327 329.641 278.691C329.641 281.056 328.065 282.107 325.437 282.107H321.233V275.276Z" fill="white"/>
<path d="M351.188 298.924V275.801H359.07V270.809H337.787V275.801H345.67V298.924H351.188Z" fill="white"/>
<path d="M368.53 270.546H363.274V298.661H368.53V270.546Z" fill="white"/>
<path d="M379.303 280.006V298.924H374.048V273.174C374.048 271.597 375.361 270.284 376.938 270.284C378.515 270.284 378.515 270.546 379.303 271.597L394.28 289.728V270.809H399.535V296.559C399.535 298.136 398.221 299.45 396.645 299.45C395.068 299.45 395.068 299.187 394.28 298.399L379.303 280.268V280.006Z" fill="white"/>
<path d="M410.046 271.072C409.52 270.546 408.732 270.284 407.943 270.284C406.367 270.284 405.053 271.597 405.053 273.174V298.924H410.308V292.355H425.023L432.117 298.924H440L410.046 271.072ZM410.308 287.363V278.429L419.768 287.363H410.308Z" fill="white"/>
<path d="M251.602 333.345C251.602 332.557 252.128 331.769 252.916 330.98L262.901 320.207C264.477 318.631 265.528 317.054 265.528 315.215C265.528 313.376 263.952 312.062 261.587 312.062C259.222 312.062 257.383 313.901 257.383 316.266H252.128C252.128 312.062 255.543 307.332 261.587 307.332C267.63 307.332 271.046 310.748 271.046 314.952C271.046 319.156 269.207 320.207 266.842 322.835L259.222 330.98H271.309V335.973H254.492C252.916 335.973 251.865 334.922 251.865 333.345" fill="white"/>
<path d="M238.99 307.332C232.421 307.332 229.005 313.638 229.005 321.784C229.005 329.929 232.158 336.236 238.99 336.236C245.821 336.236 248.975 329.929 248.975 321.784C248.975 313.638 245.821 307.332 238.99 307.332ZM238.99 331.769C236.362 331.769 234.523 328.353 234.523 322.047C234.523 315.74 236.099 312.325 238.99 312.325C241.88 312.325 243.457 315.74 243.457 322.047C243.457 328.353 241.88 331.769 238.99 331.769Z" fill="white"/>
<path d="M207.196 333.345C207.196 332.557 207.721 331.769 208.51 330.98L218.495 320.207C220.071 318.631 221.122 317.054 221.122 315.215C221.122 313.376 219.546 312.062 217.181 312.062C214.816 312.062 212.977 313.901 212.977 316.266H207.721C207.721 312.062 211.137 307.332 217.181 307.332C223.224 307.332 226.64 310.748 226.64 314.952C226.64 319.156 224.801 320.207 222.436 322.835L214.816 330.98H226.903V335.973H210.086C208.51 335.973 207.459 334.922 207.459 333.345" fill="white"/>
<path d="M282.082 317.317L287.863 307.858H282.345L273.937 321.521C273.148 323.098 272.36 324.937 272.36 326.776C272.36 332.031 276.827 336.498 282.082 336.498C287.337 336.498 291.804 332.294 291.804 326.776C291.804 321.258 287.337 317.054 282.082 317.054V317.317ZM282.345 331.769C279.717 331.769 278.141 329.666 278.141 327.039C278.141 324.411 279.717 322.309 282.345 322.309C284.972 322.309 286.549 324.411 286.549 327.039C286.549 329.666 284.972 331.769 282.345 331.769Z" fill="white"/>
<path d="M151.754 252.678C148.863 252.678 145.973 251.89 143.608 250.576C139.667 248.474 137.039 244.796 135.726 240.592C134.412 236.387 135.2 231.921 137.302 227.979L205.094 109.475L172.512 117.621C171.198 117.883 169.884 118.146 168.308 118.146C160.688 118.146 153.856 112.891 152.017 105.534C150.966 101.33 151.491 96.8626 153.856 92.9212C156.221 88.9799 159.899 86.3523 164.103 85.3012L234.523 67.6964C235.837 67.4337 237.15 67.1709 238.727 67.1709C241.617 67.1709 244.508 67.9592 246.872 69.273C255.018 73.7399 257.646 83.9875 253.179 91.8702L195.897 192.244L234.786 170.435L302.84 47.464C305.73 42.2088 311.511 38.793 317.555 38.793C323.598 38.793 323.072 39.5812 325.7 40.895C329.641 42.9971 332.532 46.6757 333.846 50.8799C335.159 55.084 334.634 59.5509 332.532 63.4923L290.49 140.218L339.363 113.154C341.991 111.577 344.619 110.789 347.509 110.789C350.399 110.789 351.713 111.052 353.552 111.84C357.757 113.416 360.91 116.57 362.749 120.774C364.588 124.978 364.588 129.445 362.749 133.386L319.394 241.905C318.606 244.007 317.292 245.847 315.715 247.686C312.562 250.839 308.358 252.678 303.628 252.678C298.899 252.678 295.22 251.102 292.067 247.949L245.559 203.017L160.162 250.576C157.535 252.153 154.644 252.941 151.754 252.941M276.039 185.938L297.585 206.696L314.401 164.654L276.301 185.938H276.039Z" fill="white"/>
</svg>
