<svg width="44" height="44" viewBox="0 0 44 44" fill="none" xmlns="http://www.w3.org/2000/svg">
<path d="M3.20245 43.946C2.64721 43.946 2.09197 43.784 1.63768 43.5141C0.880533 43.0822 0.375769 42.3264 0.123387 41.4626C-0.128995 40.5988 0.022433 39.681 0.426244 38.8712L13.4492 14.5227L7.19008 16.1963C6.9377 16.2503 6.68532 16.3043 6.38246 16.3043C4.91864 16.3043 3.60626 15.2245 3.25292 13.7129C3.05102 12.8491 3.15197 11.9313 3.60626 11.1215C4.06054 10.3117 4.76722 9.77178 5.57484 9.55583L19.1025 5.93865C19.3549 5.88466 19.6073 5.83068 19.9101 5.83068C20.4654 5.83068 21.0206 5.99264 21.4749 6.26258C23.0397 7.18037 23.5444 9.28589 22.6863 10.9055L11.6825 31.5288L19.153 27.0479L32.2264 1.7816C32.7816 0.701841 33.8921 0 35.0531 0C36.214 0 36.1131 0.161963 36.6178 0.431901C37.375 0.863803 37.9302 1.61963 38.1826 2.48344C38.435 3.34724 38.334 4.26503 37.9302 5.07485L29.854 20.8393L39.2426 15.2785C39.7474 14.9546 40.2521 14.7926 40.8074 14.7926C41.3626 14.7926 41.615 14.8466 41.9683 15.0086C42.7759 15.3325 43.3817 15.9804 43.735 16.8442C44.0883 17.708 44.0883 18.6258 43.735 19.4356L35.4064 41.7325C35.255 42.1644 35.0026 42.5423 34.6997 42.9202C34.094 43.5681 33.2864 43.946 32.3778 43.946C31.4692 43.946 30.7626 43.6221 30.1568 42.9742L21.2225 33.7423L4.81769 43.5141C4.31293 43.838 3.75769 44 3.20245 44M27.0778 30.2331L31.2169 34.4982L34.4473 25.8601L27.1283 30.2331H27.0778Z" fill="black"/>
</svg>
